<?xml version="1.0" encoding="utf-8"?>
<!-- Generator: Adobe Illustrator 23.0.4, SVG Export Plug-In . SVG Version: 6.00 Build 0)  -->
<svg version="1.1" xmlns="http://www.w3.org/2000/svg" xmlns:xlink="http://www.w3.org/1999/xlink" x="0px" y="0px"
	 viewBox="0 0 593 269" style="enable-background:new 0 0 593 269;" xml:space="preserve">
<style type="text/css">
    .st0 {
        fill: #FFFFFF;
        stroke: url(#SVGID_1_);
        stroke-width: 13;
        stroke-miterlimit: 10;
    }

    .st1 {
        fill: #FFFFFF;
        stroke: url(#SVGID_2_);
        stroke-width: 13;
        stroke-miterlimit: 10;
    }

    .st2 {
        fill: #FFFFFF;
        stroke: url(#SVGID_3_);
        stroke-width: 13;
        stroke-miterlimit: 10;
    }

    .st3 {
        fill: #FFFFFF;
        stroke: url(#SVGID_4_);
        stroke-width: 13;
        stroke-miterlimit: 10;
    }

    .st4 {
        fill: #FFFFFF;
        stroke: url(#SVGID_5_);
        stroke-width: 13;
        stroke-miterlimit: 10;
    }

    .st5 {
        fill: url(#SVGID_6_);
        stroke: url(#SVGID_7_);
        stroke-miterlimit: 10;
    }
</style>
<!--
<g id="mask">
    <linearGradient id="SVGID_1_" gradientUnits="userSpaceOnUse" x1="168" y1="127.5526" x2="225.0962" y2="127.5526">
        <stop offset="0" style="stop-color:#CCE0F4" />
        <stop offset="0.0641" style="stop-color:#C3DCF2" />
        <stop offset="0.1706" style="stop-color:#A9D2EE" />
        <stop offset="0.3066" style="stop-color:#80C2E7" />
        <stop offset="0.4649" style="stop-color:#47ACDE" />
        <stop offset="0.5674" style="stop-color:#1E9CD7" />
        <stop offset="0.8652" style="stop-color:#0075BE" />
        <stop offset="0.9944" style="stop-color:#005B97" />
    </linearGradient>
    <path class="st0" d="M194.5,103.5c0,0-3-5-14,6c0,0-3,5-4,24l-2,19c0,0,0-20,14-25c0,0,7-1,3,15s6,4,6,4l9-6c0,0,13-2,12-12
		c0,0-8-6-14,8s7,16,7,16s2-1,9-8" />
    <linearGradient id="SVGID_2_" gradientUnits="userSpaceOnUse" x1="221.8883" y1="126.8632" x2="247.3062" y2="126.8632">
        <stop offset="0" style="stop-color:#CCE0F4" />
        <stop offset="0.0641" style="stop-color:#C3DCF2" />
        <stop offset="0.1706" style="stop-color:#A9D2EE" />
        <stop offset="0.3066" style="stop-color:#80C2E7" />
        <stop offset="0.4649" style="stop-color:#47ACDE" />
        <stop offset="0.5674" style="stop-color:#1E9CD7" />
        <stop offset="0.8652" style="stop-color:#0075BE" />
        <stop offset="0.9944" style="stop-color:#005B97" />
    </linearGradient>
    <path class="st1" d="M246.5,102.5c0,0-8-1-14,10l-4,38c0,0,1,3,7-3" />
    <linearGradient id="SVGID_3_" gradientUnits="userSpaceOnUse" x1="238" y1="129.0086" x2="282.8715" y2="129.0086">
        <stop offset="0" style="stop-color:#CCE0F4" />
        <stop offset="0.0641" style="stop-color:#C3DCF2" />
        <stop offset="0.1706" style="stop-color:#A9D2EE" />
        <stop offset="0.3066" style="stop-color:#80C2E7" />
        <stop offset="0.4649" style="stop-color:#47ACDE" />
        <stop offset="0.5674" style="stop-color:#1E9CD7" />
        <stop offset="0.8652" style="stop-color:#0075BE" />
        <stop offset="0.9944" style="stop-color:#005B97" />
    </linearGradient>
    <path class="st2" d="M261.5,102.5c0,0-9,0-13,10s-4,39-4,39s4-2,6-4s7-3,7-3s1-20,15-18c0,0,8,5,1,17c0,0-4,10-10,9s-5-5-5-5" />
    <linearGradient id="SVGID_4_" gradientUnits="userSpaceOnUse" x1="294.2501" y1="133.015" x2="329.7803" y2="133.015">
        <stop offset="0" style="stop-color:#CCE0F4" />
        <stop offset="0.0641" style="stop-color:#C3DCF2" />
        <stop offset="0.1706" style="stop-color:#A9D2EE" />
        <stop offset="0.3066" style="stop-color:#80C2E7" />
        <stop offset="0.4649" style="stop-color:#47ACDE" />
        <stop offset="0.5674" style="stop-color:#1E9CD7" />
        <stop offset="0.8652" style="stop-color:#0075BE" />
        <stop offset="0.9944" style="stop-color:#005B97" />
    </linearGradient>
    <path class="st3" d="M325.5,117.5c0,0-8-7-15-3s-5,9-5,9l15,16c0,0,5,9-8,13c0,0-10,2-12-5" />
    <linearGradient id="SVGID_5_" gradientUnits="userSpaceOnUse" x1="325.1111" y1="137.8209" x2="424.2222" y2="137.8209">
        <stop offset="0" style="stop-color:#CCE0F4" />
        <stop offset="0.0641" style="stop-color:#C3DCF2" />
        <stop offset="0.1706" style="stop-color:#A9D2EE" />
        <stop offset="0.3066" style="stop-color:#80C2E7" />
        <stop offset="0.4649" style="stop-color:#47ACDE" />
        <stop offset="0.5674" style="stop-color:#1E9CD7" />
        <stop offset="0.8652" style="stop-color:#0075BE" />
        <stop offset="0.9944" style="stop-color:#005B97" />
    </linearGradient>
    <path class="st4" d="M332.5,131.5c0,0-2-4,0-9s14-8,14-8s9-2,3,4s-1,30-1,30s5,8,13,1s8-11,8-11l2-23l-2,34l8-2l3-26c0,0,5-11,10-6
		s9,35,9,35l16-23c0,0,5-13,0-13" />
</g>
-->
<g id="base">
	<linearGradient id="SVGID_6_" gradientUnits="userSpaceOnUse" x1="171.6978" y1="127.4561" x2="419.8193" y2="127.4561">
		<stop  offset="0" style="stop-color:#CCE0F4"/>
		<stop  offset="0.0641" style="stop-color:#C3DCF2"/>
		<stop  offset="0.1706" style="stop-color:#A9D2EE"/>
		<stop  offset="0.3066" style="stop-color:#80C2E7"/>
		<stop  offset="0.4649" style="stop-color:#47ACDE"/>
		<stop  offset="0.5674" style="stop-color:#1E9CD7"/>
		<stop  offset="0.8652" style="stop-color:#0075BE"/>
		<stop  offset="0.9944" style="stop-color:#005B97"/>
	</linearGradient>
	<linearGradient id="SVGID_7_" gradientUnits="userSpaceOnUse" x1="171.1115" y1="127.7384" x2="420.3193" y2="127.7384">
		<stop  offset="0" style="stop-color:#CCE0F4"/>
		<stop  offset="0.0641" style="stop-color:#C3DCF2"/>
		<stop  offset="0.1706" style="stop-color:#A9D2EE"/>
		<stop  offset="0.3066" style="stop-color:#80C2E7"/>
		<stop  offset="0.4649" style="stop-color:#47ACDE"/>
		<stop  offset="0.5674" style="stop-color:#1E9CD7"/>
		<stop  offset="0.8652" style="stop-color:#0075BE"/>
		<stop  offset="0.9944" style="stop-color:#005B97"/>
	</linearGradient>
	<path class="st5" d="M177.7,136.61c2.27-3.42,4.78-6.24,7.5-8.47c2.73-2.23,5.07-3.34,7.01-3.34c1.88,0,2.83,1.31,2.83,3.93
		c0,0.78-0.11,1.97-0.34,3.58l-1.55,10.86c-0.32,2.17-0.48,3.89-0.48,5.15c0,1.01,0.27,1.51,0.82,1.51c1.34,0,2.99-1.78,4.94-5.33
		c0.49,0.29,0.73,0.59,0.73,0.9c0,1.26-1.08,2.92-3.25,4.97c-2.17,2.05-3.93,3.08-5.29,3.08c-1.52,0-2.28-1.09-2.28-3.26
		c0-1.59,0.2-3.8,0.61-6.62l1.01-7.05c0.33-2.31,0.5-4.15,0.5-5.51c0-1.5-0.53-2.24-1.6-2.24c-2.48,0-4.99,1.69-7.53,5.06
		c-2.54,3.37-4.03,6.99-4.48,10.86l-0.77,7l-4.36,1.78l0.09-0.82l0.23-2.16l0.23-2.04l2.83-25.55c0.68-6.03,2.91-11.17,6.7-15.44
		c3.79-4.27,8.02-6.4,12.7-6.4c0.97,0,1.91,0.11,2.83,0.32l-4.28,4.2c-1.11-0.33-2.16-0.5-3.15-0.5c-5.77,0-9.16,4.51-10.17,13.54
		L177.7,136.61z M219.58,143.43c0.49,0.33,0.73,0.72,0.73,1.17c0,0.6-0.62,1.63-1.87,3.09c-3.32,3.85-6.61,5.77-9.85,5.77
		c-1.98,0-3.61-0.79-4.9-2.36c-1.28-1.57-1.92-3.58-1.92-6.03c0-4.43,1.68-8.91,5.03-13.45c3.35-4.54,6.67-6.81,9.95-6.81
		c2.37,0,3.56,1.27,3.56,3.82c0,2.86-1.38,5.64-4.15,8.36c-2.77,2.72-6.15,4.62-10.13,5.68c0.39,4.66,2.23,7,5.54,7
		C214.83,149.67,217.5,147.59,219.58,143.43z M206.14,139.11c0.56,0.19,1.08,0.29,1.54,0.29c2.41,0,4.52-0.74,6.32-2.22
		c1.81-1.48,2.71-3.21,2.71-5.19c0-2.27-1.16-3.41-3.47-3.41c-1.67,0-3.18,1-4.53,2.99C207.37,133.57,206.51,136.08,206.14,139.11z
		 M235.88,144.13c0.56,0.27,0.84,0.62,0.84,1.05c0,1.4-1.04,3.13-3.13,5.19c-2.09,2.06-3.84,3.09-5.26,3.09
		c-1.61,0-2.42-1.17-2.42-3.5c0-1.42,0.09-2.87,0.26-4.34l0.32-2.59l2.25-20.29c0.7-6.18,2.82-11.34,6.37-15.48
		c3.55-4.14,7.63-6.21,12.25-6.21c1.13,0,2.08,0.1,2.86,0.29l-4.13,4.23c-0.91-0.31-1.98-0.47-3.2-0.47c-2.91,0-5.09,1.02-6.54,3.07
		c-1.45,2.05-2.44,5.52-2.98,10.41l-2.7,24.41c-0.21,1.88-0.32,3.23-0.32,4.05c0,1.75,0.3,2.62,0.9,2.62c0.72,0,1.56-0.57,2.52-1.73
		C234.73,146.79,235.43,145.52,235.88,144.13z M251.79,144.13c0.56,0.27,0.84,0.62,0.84,1.05c0,1.4-1.04,3.13-3.13,5.19
		c-2.09,2.06-3.84,3.09-5.26,3.09c-1.61,0-2.42-1.17-2.42-3.5c0-1.42,0.09-2.87,0.26-4.34l0.32-2.59l2.25-20.29
		c0.7-6.18,2.82-11.34,6.37-15.48c3.55-4.14,7.63-6.21,12.25-6.21c1.13,0,2.08,0.1,2.86,0.29l-4.13,4.23
		c-0.91-0.31-1.98-0.47-3.2-0.47c-2.91,0-5.09,1.02-6.54,3.07c-1.45,2.05-2.44,5.52-2.98,10.41l-2.7,24.41
		c-0.21,1.88-0.32,3.23-0.32,4.05c0,1.75,0.3,2.62,0.9,2.62c0.72,0,1.56-0.57,2.52-1.73C250.64,146.79,251.35,145.52,251.79,144.13z
		 M262.34,153.46c-4.37,0-6.56-2.9-6.56-8.69c0-4.66,1.71-9.16,5.13-13.48c3.42-4.32,6.97-6.48,10.64-6.48
		c4.43,0,6.65,2.9,6.65,8.69c0,4.68-1.71,9.18-5.13,13.5C269.65,151.3,266.07,153.46,262.34,153.46z M265.87,150.19
		c2.23,0,4.1-1.24,5.61-3.73s2.26-5.59,2.26-9.3c0-6.06-1.88-9.09-5.65-9.09c-2.22,0-4.08,1.25-5.58,3.75
		c-1.51,2.5-2.26,5.59-2.26,9.28C260.24,147.16,262.12,150.19,265.87,150.19z M297.46,147.54l4.96-3c0.78,4.78,3.65,7.17,8.61,7.17
		c2.41,0,4.39-0.66,5.92-1.97s2.31-3,2.31-5.06c0-2.82-1.71-5.62-5.11-8.39l-3.53-2.86c-2.84-2.33-4.74-4.17-5.69-5.52
		c-0.95-1.35-1.43-2.87-1.43-4.56c0-3.19,1.27-5.82,3.82-7.9c2.55-2.08,5.76-3.12,9.65-3.12c3.09,0,6.01,0.74,8.77,2.22l-1.69,3.88
		l-0.76,1.72c-0.43,1.01-0.93,1.52-1.52,1.52c-0.25,0-0.52-0.1-0.79-0.29c0.33-1.01,0.5-1.82,0.5-2.43c0-1.25-0.69-2.29-2.05-3.13
		c-1.37-0.84-3.07-1.26-5.09-1.26c-4.59,0-6.88,1.9-6.88,5.69c0,1.36,0.51,2.67,1.53,3.92c1.02,1.25,3.14,3.19,6.37,5.82l2.83,2.33
		c3.59,2.92,5.39,5.98,5.39,9.19c0,3.54-1.49,6.49-4.47,8.84c-2.98,2.35-6.71,3.53-11.18,3.53
		C302.48,153.86,299,151.75,297.46,147.54z M335.26,130.08l-4.75,4.55c-0.45-1.52-0.67-3.02-0.67-4.52c0-5.01,1.87-9.04,5.6-12.07
		s8.69-4.55,14.87-4.55h4.25c-1.75,3.38-3.18,7.42-4.28,12.12s-1.66,9.05-1.66,13.05c0,8.04,2.45,12.06,7.35,12.06
		c3.3,0,5.97-1.6,7.99-4.79c2.02-3.19,3.33-7.88,3.94-14.05c0.27-2.81,0.45-4.65,0.55-5.5l1.21-10.98l5.78-3
		c-0.83,3.21-1.52,7.16-2.04,11.86l-1.05,9.33c-0.04,0.33-0.15,1.43-0.32,3.29l-0.41,4.05c-0.16,1.54-0.23,2.86-0.23,3.96
		c0,1.94,0.74,2.92,2.21,2.92c1.17,0,2.48-0.46,3.93-1.37c0.04,0.16,0.07,0.27,0.09,0.35c0.04,0.23,0.06,0.42,0.06,0.55
		c0,0.56-0.54,1.1-1.61,1.6l-1.72,0.85l-8.58,4.08l1.1-9.74c-4.16,6.49-8.64,9.74-13.44,9.74c-6.57,0-9.85-5.01-9.85-15.03
		c0-6.78,1.63-14.05,4.9-21.81h-2.45c-8.08,0-12.12,2.67-12.12,8.02C333.89,126.71,334.35,128.39,335.26,130.08z M403.21,148.85
		l-5.1,5.01c-0.78-6.18-2.15-13.18-4.11-21.02c-1.69-6.66-3-10.98-3.92-12.96c-0.92-1.97-2.12-2.96-3.6-2.96
		c-2.55,0-4.38,1.94-5.51,5.83c-0.72-0.16-1.06-0.54-1.02-1.17c0.06-1.2,0.8-2.93,2.22-5.19c1.71-2.72,3.89-4.08,6.53-4.08
		c2.18,0,3.87,0.99,5.07,2.96s2.59,6.03,4.17,12.17c1.74,6.9,3.12,13.06,4.15,18.48c8.5-11.91,12.76-20.21,12.76-24.89
		c0-1.83-0.74-3.16-2.22-3.99l4.29-4.72c1.94,1.09,2.91,2.77,2.91,5.04c0,2.88-2.34,8.04-7.02,15.48l-3.29,5.07l-2.39,3.76
		c-0.14,0.21-0.61,1.03-1.43,2.45l-1.34,2.36C404.15,146.82,403.77,147.61,403.21,148.85z"/>
</g>
</svg>
