<?xml version="1.0" encoding="utf-8"?>
<!-- Generator: Adobe Illustrator 23.0.4, SVG Export Plug-In . SVG Version: 6.00 Build 0)  -->
<svg version="1.1" xmlns="http://www.w3.org/2000/svg" xmlns:xlink="http://www.w3.org/1999/xlink" x="0px" y="0px"
	 viewBox="0 0 400 201" style="enable-background:new 0 0 400 201;" xml:space="preserve">
<style type="text/css">
	.st0{fill:#D4145A;}
	.st1{fill:none;stroke:#1B1464;stroke-width:5;stroke-miterlimit:10;}
	.st2{fill:none;}
	.st3{fill:none;stroke:#1B1464;stroke-width:7;stroke-miterlimit:10;}
	.st4{fill:none;stroke:#0C0303;stroke-width:7;stroke-miterlimit:10;}
	.st5{fill:none;stroke:#0C0303;stroke-width:8;stroke-miterlimit:10;}
	.st6{fill:none;stroke:#0C0303;stroke-width:6;stroke-miterlimit:10;}
	.st7{fill:none;stroke:#0C0303;stroke-width:5;stroke-miterlimit:10;}
</style>
<g id="base">
	<path class="st0" d="M67.74,112.78c1.32,0,2.52-0.54,4.08-1.68l1.38,1.62c-1.5,1.92-3.96,3.06-6.96,3.06
		c-4.14,0-6.72-2.16-6.72-6.78c0-1.44,0.06-2.7,0.06-5.04V89.68h-5.04V87.1l7.44-0.96l-2.4,1.98l1.8-9.72h3.48l-0.48,10.5v19.44
		C64.38,111.46,65.7,112.78,67.74,112.78z M72.66,86.56v3.12H61.98v-3.12H72.66z M100.92,97.24c0,1.38-0.18,2.58-0.42,3.36H78.36
		v-2.52h14.28c2.88,0,3.54-1.38,3.54-3.06c0-3.42-2.88-6.54-6.66-6.54c-3.84,0-8.28,3.24-8.28,11.82c0,7.62,3.84,11.7,9.84,11.7
		c3.84,0,6.24-1.74,8.4-4.26l1.38,1.08c-2.16,4.26-6,6.96-11.46,6.96c-8.04,0-13.26-5.58-13.26-14.7c0-9.18,6.24-15.3,13.68-15.3
		C96,85.78,100.92,89.98,100.92,97.24z M107.04,113.5l-0.24-6.54h3.18l1.62,7.08l-2.94-1.38v-2.04c2.1,1.62,4.38,2.46,7.38,2.46
		c4.62,0,6.78-1.86,6.78-4.62c0-2.58-1.8-3.9-5.58-5.28l-2.76-1.02c-4.38-1.62-7.26-3.96-7.26-8.04c0-4.32,3.66-8.34,10.32-8.34
		c3.24,0,5.76,0.9,8.34,2.46l-0.24,6.06h-3l-1.2-6.06l2.16,0.96v1.56c-1.92-1.5-3.96-2.28-6.12-2.28c-3.72,0-5.64,1.62-5.64,4.14
		c0,2.7,1.5,3.72,5.58,5.22l1.8,0.66c6,2.22,8.28,5.04,8.28,8.76c0,4.44-3.9,8.52-11.58,8.52C112.56,115.78,109.98,115,107.04,113.5
		z M143.64,112.78c1.32,0,2.52-0.54,4.08-1.68l1.38,1.62c-1.5,1.92-3.96,3.06-6.96,3.06c-4.14,0-6.72-2.16-6.72-6.78
		c0-1.44,0.06-2.7,0.06-5.04V89.68h-5.04V87.1l7.44-0.96l-2.4,1.98l1.8-9.72h3.48l-0.48,10.5v19.44
		C140.28,111.46,141.6,112.78,143.64,112.78z M148.56,86.56v3.12h-10.68v-3.12H148.56z M169.98,115c0.12-2.7,0.18-8.88,0.18-12.6
		v-2.82c0-3.3-0.06-5.16-0.18-7.56l-4.92-0.54v-2.1l9.06-3.6l0.9,0.6l-0.18,8.1v7.92c0,3.72,0.06,9.9,0.18,12.6H169.98z
		 M179.22,112.9v2.1h-13.8v-2.1l6.6-1.2h1.2L179.22,112.9z M168.48,75.22c0-2.28,1.74-3.78,3.96-3.78s3.96,1.5,3.96,3.78
		c0,2.22-1.74,3.78-3.96,3.78S168.48,77.44,168.48,75.22z M188.04,115c0.12-2.7,0.18-8.88,0.18-12.6v-2.82
		c0-3.3-0.06-5.16-0.18-7.56l-4.8-0.54v-2.1l8.16-3.6l0.9,0.6l0.72,6.96v9.06c0,3.72,0.06,9.9,0.18,12.6H188.04z M197.4,112.9v2.1
		h-13.8v-2.1l6.6-1.2h1.2L197.4,112.9z M211.02,96.88v5.52c0,3.84,0.06,9.9,0.18,12.6h-5.16c0.12-2.7,0.18-8.76,0.18-12.6v-5.04
		c0-5.58-1.44-7.38-5.04-7.38c-2.94,0-5.28,1.2-8.64,4.14h-1.26v-2.7h3.06l-2.58,1.08c2.82-3.78,7.44-6.72,11.64-6.72
		C208.56,85.78,211.02,88.96,211.02,96.88z M209.4,111.7l6,1.2v2.1h-13.8v-2.1l6.6-1.2H209.4z M229.02,96.22v6.18
		c0,3.84,0.06,9.9,0.18,12.6h-5.16c0.12-2.7,0.18-8.76,0.18-12.6v-5.16c0-5.64-1.56-7.26-5.1-7.26c-2.7,0-5.22,1.08-8.58,4.14h-1.44
		v-2.1h3.24l-2.76,0.48c3.12-4.44,7.56-6.72,11.82-6.72C226.2,85.78,229.02,88.78,229.02,96.22z M227.4,111.7l6,1.2v2.1h-13.8v-2.1
		l6.6-1.2H227.4z M247.8,99.28c2.52-0.9,6.3-1.98,9.3-2.52v2.16c-2.7,0.54-6.24,1.68-8.04,2.4c-5.4,2.1-6,4.38-6,6.12
		c0,3.18,2.1,4.44,4.86,4.44c2.1,0,3.3-0.78,7.08-3.48l1.2-0.9l0.84,1.26l-1.74,1.74c-3.6,3.6-5.64,5.28-9.3,5.28
		c-4.38,0-8.04-2.52-8.04-7.5C237.96,104.92,239.76,102.22,247.8,99.28z M254.7,109.48V95.8c0-5.88-1.68-7.32-5.64-7.32
		c-1.38,0-3.18,0.18-5.4,1.08l2.4-1.86l-1.56,5.16c-0.54,1.74-1.44,2.7-3.06,2.7c-1.62,0-2.58-0.9-2.7-2.4
		c1.14-4.56,5.58-7.38,11.58-7.38c6.18,0,9.18,2.82,9.18,10.38v12.72c0,2.7,0.84,3.66,2.22,3.66c1.02,0,1.68-0.54,2.34-1.32
		l1.2,1.32c-1.44,2.28-3.06,3.06-5.1,3.06C256.86,115.6,254.7,113.2,254.7,109.48z M290.64,120.52c0-2.7-1.68-4.74-6.06-4.74h-7.08
		c-1.02,0-2.1-0.06-3-0.18v-0.18c-3.06-0.66-4.62-2.22-4.62-4.74c0-2.1,1.38-4.38,5.46-7.92l1.32,0.9c-1.8,1.92-2.58,3.24-2.58,5.04
		c0,1.62,0.66,2.7,3.48,2.7h7.92c6.42,0,9.48,2.82,9.48,7.68c0,5.16-4.92,10.32-14.64,10.32c-8.64,0-12.42-3-12.42-7.32
		c0-2.94,1.86-5.16,7.92-7.74l0.3,0.36c-2.4,2.34-3.36,4.14-3.36,6.48c0,3.96,3.06,5.52,7.74,5.52
		C287.1,126.7,290.64,123.94,290.64,120.52z M280.08,85.78c6.12,0,10.68,3.24,10.68,9.84c0,6.36-4.68,9.84-10.74,9.84
		c-6.18,0-10.74-3.24-10.74-9.84C269.28,89.26,273.96,85.78,280.08,85.78z M273.96,95.68c0,4.38,2.16,7.38,5.88,7.38
		c3.9,0,6.24-3.18,6.24-7.62c0-4.26-2.16-7.26-5.94-7.26C276.3,88.18,273.96,91.3,273.96,95.68z M294.36,85.78l0.9,0.6v3.72h-8.82
		v-1.62L294.36,85.78z M324.18,97.24c0,1.38-0.18,2.58-0.42,3.36h-22.14v-2.52h14.28c2.88,0,3.54-1.38,3.54-3.06
		c0-3.42-2.88-6.54-6.66-6.54c-3.84,0-8.28,3.24-8.28,11.82c0,7.62,3.84,11.7,9.84,11.7c3.84,0,6.24-1.74,8.4-4.26l1.38,1.08
		c-2.16,4.26-6,6.96-11.46,6.96c-8.04,0-13.26-5.58-13.26-14.7c0-9.18,6.24-15.3,13.68-15.3C319.26,85.78,324.18,89.98,324.18,97.24
		z M330.3,113.5l-0.24-6.54h3.18l1.62,7.08l-2.94-1.38v-2.04c2.1,1.62,4.38,2.46,7.38,2.46c4.62,0,6.78-1.86,6.78-4.62
		c0-2.58-1.8-3.9-5.58-5.28l-2.76-1.02c-4.38-1.62-7.26-3.96-7.26-8.04c0-4.32,3.66-8.34,10.32-8.34c3.24,0,5.76,0.9,8.34,2.46
		l-0.24,6.06h-3l-1.2-6.06l2.16,0.96v1.56c-1.92-1.5-3.96-2.28-6.12-2.28c-3.72,0-5.64,1.62-5.64,4.14c0,2.7,1.5,3.72,5.58,5.22
		l1.8,0.66c6,2.22,8.28,5.04,8.28,8.76c0,4.44-3.9,8.52-11.58,8.52C335.82,115.78,333.24,115,330.3,113.5z"/>
	<path class="st0" d="M301,177"/>
</g>
<g id="mask">
	<line class="st1" x1="54.54" y1="88.12" x2="72" y2="88"/>
	<path class="st2" d="M63,79"/>
	<path class="st3" d="M62.5,79.5v31c0,0,0,8,10,2"/>
	<path class="st4" d="M79.5,99.5h20c0,0,1-11-11-13c0,0-10,3-11,13s10,15,10,15s8,1,12-5"/>
	<path class="st5" d="M124.5,93.5c0,0-5-16-16,0c0,0,4,8,12,8s3,11,3,11s-13,8-15-5"/>
	<polyline class="st4" points="131.5,88.5 138.54,88.5 147.5,88.5 	"/>
	<path class="st6" d="M137.5,79.5v32c0,0,3,6,10,1"/>
	<path class="st6" d="M176.5,75.5c-5-8-8,0-8,0"/>
	<path class="st7" d="M168.5,76.5c0,0,3,5,8,0"/>
	<polyline class="st6" points="166.5,90.5 172.5,88.5 172.5,113.5 166.5,113.5 177.5,113.5 	"/>
	<polyline class="st4" points="184.5,90.5 190.5,88.5 190.5,113.5 184.5,113.5 196.5,113.5 	"/>
	<path class="st4" d="M191.5,92.5c0,0,14-11,18,0v21h-7h12"/>
	<path class="st4" d="M210.5,93.5c0,0,12-13,17-1v21h-7h12"/>
	<path class="st4" d="M240.5,93.5c0,0,10-14,16-2v17c0,0-8,7-10,6s-10-3-5-11c0,0,13-7,16-6v14c0,0,0,6,7,1"/>
	<path class="st4" d="M276.5,103.5c0,0,19,3,10-15c0,0-20-8-13,14c0,0,1,3,0,5s-5,5,5,7h9c0,0,10,2,3,10s-19,1-19,1s-3-4,2-11"/>
	<path class="st4" d="M302.5,98.5h19c0,0-6-28-21,0c0,0,3,26,22,11"/>
	<path class="st4" d="M347.5,92.5c0,0-6-15-15,1c0,0,6,8,15,11c0,0,5,7-7,10s-9-7-9-7"/>
	<line class="st4" x1="295.5" y1="87.5" x2="290.5" y2="88.5"/>
</g>
</svg>
